<?xml version="1.0" encoding="utf-8"?>
<!-- Generator: Adobe Illustrator 22.0.1, SVG Export Plug-In . SVG Version: 6.00 Build 0)  -->
<svg version="1.1" id="Capa_1" xmlns="http://www.w3.org/2000/svg" xmlns:xlink="http://www.w3.org/1999/xlink" x="0px" y="0px"
	 viewBox="0 0 64 64" style="enable-background:new 0 0 64 64;" xml:space="preserve">
<style type="text/css">
	.st0{fill:#4D4D4D;}
	.st1{fill:#FD4239;}
	.st2{fill:#DD463C;}
	.st3{fill:#00A4E3;}
	.st4{fill:#5A6E7A;}
	.st5{fill:#FFFFFF;}
	.st6{fill:#5E666F;}
</style>
<g>
	<rect x="-3.3" y="-8.5" class="st1" width="70.5" height="86.1"/>
	<path class="st5" d="M57.1,27.2c-1.1-1.8-2.5-3.1-4.3-4.1c-1.8-0.9-3.9-1.4-6.2-1.4c-2.3,0-4.4,0.5-6.2,1.4
		c-1.8,0.9-3.3,2.3-4.3,4.1c-0.7,1.2-1.2,2.6-1.4,4.1h-4.9c0.2-0.2,0.5-0.5,0.7-0.8c0.9-1.2,1.4-2.8,1.4-4.8v-0.6
		c0-1.8-0.4-3.3-1.3-4.6c-0.8-1.3-2-2.3-3.5-3c-1.5-0.7-3.3-1.1-5.4-1.1H7.4v32.6h6.2V36.9h8.6c0.9,0,1.5,0.2,1.9,0.7
		c0.4,0.5,0.6,1.1,0.6,1.8v9.8h6.2V38.5c0-0.7-0.1-1.3-0.3-1.8h4c0.2,1.5,0.7,2.9,1.4,4.1c1.1,1.8,2.5,3.1,4.3,4.1
		c1.8,0.9,3.9,1.4,6.2,1.4c2.3,0,4.4-0.5,6.2-1.4c1.8-0.9,3.3-2.3,4.3-4.1c1.1-1.8,1.6-3.9,1.6-6.4v-0.7
		C58.6,31.2,58.1,29,57.1,27.2z M21,31.3h-7.4v-9.1H21c1.5,0,2.6,0.4,3.5,1.2c0.8,0.8,1.2,1.8,1.2,3.1v0.5c0,1.3-0.4,2.4-1.2,3.1
		C23.6,30.9,22.4,31.3,21,31.3z M52.8,34.2c0,2.2-0.6,3.8-1.8,5c-1.2,1.2-2.7,1.7-4.5,1.7c-1.8,0-3.3-0.6-4.5-1.7
		c-1.2-1.2-1.8-2.8-1.8-5v-0.5c0-2.2,0.6-3.8,1.8-5c1.2-1.2,2.7-1.7,4.5-1.7c1.8,0,3.3,0.6,4.5,1.7c1.2,1.2,1.7,2.8,1.7,5V34.2z"/>
</g>
</svg>
