<?xml version="1.0" encoding="utf-8"?>
<!-- Generator: Adobe Illustrator 22.0.1, SVG Export Plug-In . SVG Version: 6.00 Build 0)  -->
<svg version="1.1" id="Capa_1" xmlns="http://www.w3.org/2000/svg" xmlns:xlink="http://www.w3.org/1999/xlink" x="0px" y="0px"
	 viewBox="0 0 128 46" style="enable-background:new 0 0 128 46;" xml:space="preserve">
<style type="text/css">
	.st0{fill:#4D4D4D;}
	.st1{fill:#FD4239;}
	.st2{fill:#DD463C;}
	.st3{fill:#00A4E3;}
	.st4{fill:#5A6E7A;}
	.st5{fill:#FFFFFF;}
	.st6{fill:#5E666F;}
</style>
<g>
	<rect x="0" class="st4" width="128" height="46"/>
	<g>
		<g>
			<path class="st5" d="M20.1,19.6c0.6,0.4,1,1.1,1.2,1.8H20c-0.2-0.4-0.4-0.7-0.8-1c-0.4-0.2-0.8-0.4-1.3-0.4
				c-0.5,0-0.9,0.1-1.3,0.3c-0.4,0.2-0.7,0.5-0.9,0.9c-0.2,0.4-0.3,0.9-0.3,1.4c0,0.6,0.1,1.1,0.3,1.5c0.2,0.4,0.5,0.7,0.9,1
				c0.4,0.2,0.8,0.3,1.4,0.3c0.6,0,1.2-0.2,1.6-0.6c0.5-0.4,0.7-0.9,0.8-1.6h-2.8v-0.9h3.8v1.2c-0.1,0.6-0.3,1.1-0.6,1.5
				c-0.3,0.5-0.7,0.8-1.2,1.1c-0.5,0.3-1.1,0.4-1.8,0.4c-0.7,0-1.4-0.2-2-0.5c-0.6-0.3-1-0.8-1.3-1.4c-0.3-0.6-0.5-1.3-0.5-2
				c0-0.8,0.2-1.4,0.5-2s0.7-1,1.3-1.4c0.6-0.3,1.2-0.5,2-0.5C18.7,19,19.5,19.2,20.1,19.6z"/>
			<path class="st5" d="M27.5,26.6l-1.9-3h-0.9v3h-1.2V19h2.7c0.9,0,1.5,0.2,2,0.6c0.4,0.4,0.7,1,0.7,1.7c0,0.6-0.2,1.1-0.5,1.5
				c-0.3,0.4-0.8,0.6-1.4,0.7l2,3.1H27.5z M24.7,22.7H26c1,0,1.5-0.4,1.5-1.3c0-0.4-0.1-0.7-0.4-1c-0.2-0.2-0.6-0.3-1.1-0.3h-1.4
				V22.7z"/>
			<path class="st5" d="M31.9,19v4.5c0,0.7,0.1,1.2,0.4,1.5c0.3,0.3,0.7,0.5,1.3,0.5c0.5,0,0.9-0.2,1.2-0.5c0.3-0.3,0.4-0.8,0.4-1.5
				V19h1.2v4.5c0,1-0.3,1.8-0.8,2.4c-0.5,0.5-1.2,0.8-2.1,0.8c-0.9,0-1.6-0.3-2.1-0.8c-0.5-0.5-0.8-1.3-0.8-2.4V19H31.9z"/>
			<path class="st5" d="M40,23.7v3h-1.2V19h2.6c0.9,0,1.5,0.2,2,0.6c0.4,0.4,0.7,1,0.7,1.7c0,0.7-0.2,1.3-0.7,1.7
				c-0.5,0.4-1.1,0.6-2,0.6H40z M42.7,21.4c0-0.4-0.1-0.8-0.4-1c-0.2-0.2-0.6-0.3-1.2-0.3H40v2.6h1.2C42.2,22.7,42.7,22.2,42.7,21.4
				z"/>
			<path class="st5" d="M57.1,19.1v7.5h-1.2V21l-2.2,5.6h-1.1L50.4,21v5.6h-1.2v-7.5h1.5l2.5,6l2.4-6H57.1z"/>
			<path class="st5" d="M63.9,25h-3.2l-0.6,1.6h-1.3l2.8-7.5H63l2.8,7.5h-1.3L63.9,25z M63.5,24l-1.3-3.6L61,24H63.5z"/>
			<path class="st5" d="M68.7,19v4.5c0,0.7,0.1,1.2,0.4,1.5c0.3,0.3,0.7,0.5,1.3,0.5c0.5,0,0.9-0.2,1.2-0.5c0.3-0.3,0.4-0.8,0.4-1.5
				V19h1.2v4.5c0,1-0.3,1.8-0.8,2.4c-0.5,0.5-1.2,0.8-2.1,0.8c-0.9,0-1.6-0.3-2.1-0.8c-0.5-0.5-0.8-1.3-0.8-2.4V19H68.7z"/>
			<path class="st5" d="M79.5,26.6l-1.9-3h-0.9v3h-1.2V19h2.7c0.9,0,1.5,0.2,2,0.6c0.4,0.4,0.7,1,0.7,1.7c0,0.6-0.2,1.1-0.5,1.5
				c-0.3,0.4-0.8,0.6-1.4,0.7l2,3.1H79.5z M76.7,22.7h1.4c1,0,1.5-0.4,1.5-1.3c0-0.4-0.1-0.7-0.4-1c-0.2-0.2-0.6-0.3-1.1-0.3h-1.4
				V22.7z"/>
			<path class="st5" d="M84,19v7.6h-1.2V19H84z"/>
		</g>
	</g>
	<g>
		<polygon class="st5" points="109.7,21.3 105.8,25.2 102,21.3 99.7,21.3 95.9,25.2 95.9,28.9 100.8,23.8 105.8,28.9 110.8,23.8 
			115.8,28.9 115.8,25.2 112,21.3 		"/>
		<rect x="95.9" y="17.2" class="st5" width="20" height="2.4"/>
	</g>
</g>
</svg>
