<svg data-v-423bf9ae="" xmlns="http://www.w3.org/2000/svg" viewBox="0 0 408 105" class="iconLeftSlogan"><!----><!----><!----><g data-v-423bf9ae="" id="41c2fff5-ed60-4140-a212-74bc9eafd1d7" fill="white" transform="matrix(5.4446458718365625,0,0,5.4446458718365625,115.84417794517395,-7.622503733132845)"><path d="M8.05 11.69L8.05 11.69Q8.16 11.89 8.16 12.01L8.16 12.01L8.16 12.01Q8.16 12.17 8.04 12.25L8.04 12.25L8.04 12.25Q7.92 12.33 7.70 12.33L7.70 12.33L7.70 12.33Q7.56 12.33 7.48 12.28L7.48 12.28L7.48 12.28Q7.39 12.22 7.32 12.11L7.32 12.11L4.75 7.99L4.49 7.99L2.24 7.99L2.24 11.91L2.24 11.91Q2.24 12.10 2.13 12.21L2.13 12.21L2.13 12.21Q2.02 12.33 1.82 12.33L1.82 12.33L1.82 12.33Q1.64 12.33 1.52 12.21L1.52 12.21L1.52 12.21Q1.40 12.10 1.40 11.91L1.40 11.91L1.40 1.82L1.40 1.82Q1.40 1.62 1.52 1.51L1.52 1.51L1.52 1.51Q1.64 1.40 1.82 1.40L1.82 1.40L4.49 1.40L4.49 1.40Q5.50 1.40 6.30 1.82L6.30 1.82L6.30 1.82Q7.10 2.24 7.55 3.00L7.55 3.00L7.55 3.00Q7.99 3.75 7.99 4.72L7.99 4.72L7.99 4.72Q7.99 5.87 7.36 6.70L7.36 6.70L7.36 6.70Q6.72 7.53 5.64 7.84L5.64 7.84L8.05 11.69ZM2.24 7.15L4.49 7.15L4.49 7.15Q5.26 7.15 5.87 6.85L5.87 6.85L5.87 6.85Q6.47 6.54 6.81 5.98L6.81 5.98L6.81 5.98Q7.15 5.42 7.15 4.72L7.15 4.72L7.15 4.72Q7.15 4.00 6.81 3.44L6.81 3.44L6.81 3.44Q6.47 2.87 5.87 2.55L5.87 2.55L5.87 2.55Q5.26 2.24 4.49 2.24L4.49 2.24L2.24 2.24L2.24 7.15ZM13.27 4.59L13.27 4.59Q14.36 4.59 15.26 5.10L15.26 5.10L15.26 5.10Q16.16 5.61 16.67 6.51L16.67 6.51L16.67 6.51Q17.18 7.41 17.18 8.51L17.18 8.51L17.18 8.51Q17.18 9.60 16.67 10.50L16.67 10.50L16.67 10.50Q16.16 11.40 15.26 11.91L15.26 11.91L15.26 11.91Q14.36 12.42 13.27 12.42L13.27 12.42L13.27 12.42Q12.17 12.42 11.27 11.91L11.27 11.91L11.27 11.91Q10.37 11.40 9.86 10.50L9.86 10.50L9.86 10.50Q9.35 9.60 9.35 8.51L9.35 8.51L9.35 8.51Q9.35 7.41 9.86 6.51L9.86 6.51L9.86 6.51Q10.37 5.61 11.27 5.10L11.27 5.10L11.27 5.10Q12.17 4.59 13.27 4.59L13.27 4.59ZM13.27 5.38L13.27 5.38Q12.40 5.38 11.70 5.79L11.70 5.79L11.70 5.79Q11.00 6.20 10.60 6.92L10.60 6.92L10.60 6.92Q10.19 7.63 10.19 8.51L10.19 8.51L10.19 8.51Q10.19 9.39 10.60 10.11L10.60 10.11L10.60 10.11Q11.00 10.82 11.70 11.23L11.70 11.23L11.70 11.23Q12.40 11.63 13.27 11.63L13.27 11.63L13.27 11.63Q14.14 11.63 14.84 11.23L14.84 11.23L14.84 11.23Q15.54 10.82 15.94 10.11L15.94 10.11L15.94 10.11Q16.34 9.39 16.34 8.51L16.34 8.51L16.34 8.51Q16.34 7.63 15.94 6.92L15.94 6.92L15.94 6.92Q15.54 6.20 14.84 5.79L14.84 5.79L14.84 5.79Q14.14 5.38 13.27 5.38L13.27 5.38ZM19.70 1.40L19.70 1.40Q19.50 1.40 19.39 1.51L19.39 1.51L19.39 1.51Q19.28 1.62 19.28 1.82L19.28 1.82L19.28 8.55L19.28 8.58L19.28 8.58Q19.29 9.66 19.81 10.54L19.81 10.54L19.81 10.54Q20.33 11.42 21.22 11.92L21.22 11.92L21.22 11.92Q22.11 12.42 23.18 12.42L23.18 12.42L23.18 12.42Q24.29 12.42 25.19 11.91L25.19 11.91L25.19 11.91Q26.08 11.40 26.59 10.50L26.59 10.50L26.59 10.50Q27.10 9.60 27.10 8.50L27.10 8.50L27.10 8.50Q27.10 7.41 26.59 6.51L26.59 6.51L26.59 6.51Q26.08 5.61 25.19 5.10L25.19 5.10L25.19 5.10Q24.29 4.59 23.18 4.59L23.18 4.59L23.18 4.59Q22.19 4.59 21.39 5.02L21.39 5.02L21.39 5.02Q20.58 5.45 20.12 6.19L20.12 6.19L20.12 1.82L20.12 1.82Q20.12 1.62 20.00 1.51L20.00 1.51L20.00 1.51Q19.88 1.40 19.70 1.40L19.70 1.40ZM23.18 11.63L23.18 11.63Q22.32 11.63 21.62 11.22L21.62 11.22L21.62 11.22Q20.92 10.81 20.52 10.09L20.52 10.09L20.52 10.09Q20.12 9.38 20.12 8.50L20.12 8.50L20.12 8.50Q20.12 7.62 20.52 6.90L20.52 6.90L20.52 6.90Q20.92 6.19 21.62 5.78L21.62 5.78L21.62 5.78Q22.32 5.38 23.18 5.38L23.18 5.38L23.18 5.38Q24.05 5.38 24.75 5.78L24.75 5.78L24.75 5.78Q25.45 6.19 25.86 6.90L25.86 6.90L25.86 6.90Q26.26 7.62 26.26 8.50L26.26 8.50L26.26 8.50Q26.26 9.38 25.86 10.09L25.86 10.09L25.86 10.09Q25.45 10.81 24.75 11.22L24.75 11.22L24.75 11.22Q24.05 11.63 23.18 11.63L23.18 11.63ZM29.48 5.10L29.48 5.10Q29.48 4.90 29.60 4.79L29.60 4.79L29.60 4.79Q29.72 4.68 29.90 4.68L29.90 4.68L29.90 4.68Q30.10 4.68 30.21 4.79L30.21 4.79L30.21 4.79Q30.32 4.90 30.32 5.10L30.32 5.10L30.32 11.91L30.32 11.91Q30.32 12.10 30.21 12.21L30.21 12.21L30.21 12.21Q30.10 12.33 29.90 12.33L29.90 12.33L29.90 12.33Q29.72 12.33 29.60 12.21L29.60 12.21L29.60 12.21Q29.48 12.10 29.48 11.91L29.48 11.91L29.48 5.10ZM29.90 1.76L29.90 1.76Q30.17 1.76 30.36 1.93L30.36 1.93L30.36 1.93Q30.55 2.10 30.55 2.41L30.55 2.41L30.55 2.41Q30.55 2.69 30.36 2.88L30.36 2.88L30.36 2.88Q30.17 3.07 29.89 3.07L29.89 3.07L29.89 3.07Q29.61 3.07 29.43 2.88L29.43 2.88L29.43 2.88Q29.25 2.69 29.25 2.41L29.25 2.41L29.25 2.41Q29.25 2.10 29.44 1.93L29.44 1.93L29.44 1.93Q29.64 1.76 29.90 1.76L29.90 1.76ZM36.58 11.48L36.58 11.48Q36.78 11.48 36.90 11.60L36.90 11.60L36.90 11.60Q37.02 11.72 37.02 11.91L37.02 11.91L37.02 11.91Q37.02 12.10 36.90 12.21L36.90 12.21L36.90 12.21Q36.78 12.33 36.58 12.33L36.58 12.33L36.26 12.33L36.26 12.33Q35.49 12.33 34.89 11.98L34.89 11.98L34.89 11.98Q34.29 11.63 33.95 11.03L33.95 11.03L33.95 11.03Q33.61 10.42 33.61 9.65L33.61 9.65L33.61 5.71L32.52 5.71L32.52 5.71Q32.35 5.71 32.25 5.61L32.25 5.61L32.25 5.61Q32.14 5.50 32.14 5.33L32.14 5.33L32.14 5.33Q32.14 5.17 32.25 5.06L32.25 5.06L32.25 5.06Q32.35 4.96 32.52 4.96L32.52 4.96L33.61 4.96L33.61 2.67L33.61 2.67Q33.61 2.48 33.73 2.36L33.73 2.36L33.73 2.36Q33.85 2.24 34.03 2.24L34.03 2.24L34.03 2.24Q34.23 2.24 34.35 2.36L34.35 2.36L34.35 2.36Q34.47 2.48 34.47 2.67L34.47 2.67L34.47 4.96L36.32 4.96L36.32 4.96Q36.48 4.96 36.59 5.06L36.59 5.06L36.59 5.06Q36.69 5.17 36.69 5.33L36.69 5.33L36.69 5.33Q36.69 5.50 36.59 5.61L36.59 5.61L36.59 5.61Q36.48 5.71 36.32 5.71L36.32 5.71L34.47 5.71L34.47 9.65L34.47 9.65Q34.47 10.46 34.97 10.97L34.97 10.97L34.97 10.97Q35.48 11.48 36.27 11.48L36.27 11.48L36.58 11.48ZM41.94 4.61L41.94 4.61Q42.97 4.61 43.77 5.09L43.77 5.09L43.77 5.09Q44.58 5.57 45.02 6.43L45.02 6.43L45.02 6.43Q45.47 7.28 45.47 8.37L45.47 8.37L45.47 8.37Q45.47 8.55 45.36 8.66L45.36 8.66L45.36 8.66Q45.25 8.76 45.07 8.76L45.07 8.76L39.20 8.76L39.20 8.76Q39.24 9.59 39.63 10.24L39.63 10.24L39.63 10.24Q40.03 10.89 40.68 11.26L40.68 11.26L40.68 11.26Q41.34 11.62 42.15 11.62L42.15 11.62L42.15 11.62Q42.70 11.62 43.25 11.43L43.25 11.43L43.25 11.43Q43.81 11.24 44.13 10.93L44.13 10.93L44.13 10.93Q44.27 10.82 44.42 10.82L44.42 10.82L44.42 10.82Q44.58 10.82 44.67 10.91L44.67 10.91L44.67 10.91Q44.83 11.03 44.83 11.20L44.83 11.20L44.83 11.20Q44.83 11.34 44.70 11.47L44.70 11.47L44.70 11.47Q44.25 11.87 43.53 12.14L43.53 12.14L43.53 12.14Q42.81 12.40 42.15 12.40L42.15 12.40L42.15 12.40Q41.05 12.40 40.19 11.91L40.19 11.91L40.19 11.91Q39.33 11.41 38.84 10.52L38.84 10.52L38.84 10.52Q38.35 9.63 38.35 8.51L38.35 8.51L38.35 8.51Q38.35 7.38 38.80 6.49L38.80 6.49L38.80 6.49Q39.26 5.60 40.08 5.10L40.08 5.10L40.08 5.10Q40.89 4.61 41.94 4.61L41.94 4.61ZM41.94 5.39L41.94 5.39Q40.85 5.39 40.10 6.12L40.10 6.12L40.10 6.12Q39.35 6.85 39.21 8.04L39.21 8.04L44.66 8.04L44.66 8.04Q44.56 6.85 43.82 6.12L43.82 6.12L43.82 6.12Q43.08 5.39 41.94 5.39L41.94 5.39ZM50.47 4.61L50.47 4.61Q51.37 4.61 52.11 4.96L52.11 4.96L52.11 4.96Q52.85 5.31 53.40 5.99L53.40 5.99L53.40 5.99Q53.49 6.13 53.49 6.23L53.49 6.23L53.49 6.23Q53.49 6.43 53.30 6.54L53.30 6.54L53.30 6.54Q53.20 6.62 53.07 6.62L53.07 6.62L53.07 6.62Q52.88 6.62 52.75 6.45L52.75 6.45L52.75 6.45Q51.86 5.39 50.47 5.39L50.47 5.39L50.47 5.39Q49.66 5.39 49.03 5.79L49.03 5.79L49.03 5.79Q48.40 6.19 48.06 6.90L48.06 6.90L48.06 6.90Q47.71 7.62 47.71 8.51L47.71 8.51L47.71 8.51Q47.71 9.39 48.09 10.11L48.09 10.11L48.09 10.11Q48.47 10.82 49.14 11.23L49.14 11.23L49.14 11.23Q49.81 11.63 50.68 11.63L50.68 11.63L50.68 11.63Q51.91 11.63 52.65 10.95L52.65 10.95L52.65 10.95Q52.78 10.82 52.95 10.82L52.95 10.82L52.95 10.82Q53.10 10.82 53.20 10.92L53.20 10.92L53.20 10.92Q53.34 11.05 53.34 11.23L53.34 11.23L53.34 11.23Q53.34 11.38 53.23 11.48L53.23 11.48L53.23 11.48Q52.74 11.93 52.08 12.17L52.08 12.17L52.08 12.17Q51.42 12.42 50.68 12.42L50.68 12.42L50.68 12.42Q49.60 12.42 48.73 11.91L48.73 11.91L48.73 11.91Q47.87 11.40 47.37 10.50L47.37 10.50L47.37 10.50Q46.87 9.60 46.87 8.51L46.87 8.51L46.87 8.51Q46.87 7.41 47.33 6.52L47.33 6.52L47.33 6.52Q47.80 5.63 48.62 5.12L48.62 5.12L48.62 5.12Q49.45 4.61 50.47 4.61L50.47 4.61Z"></path></g><!----><g data-v-423bf9ae="" id="85216fda-9115-401b-abaf-7d1925c18dc7" transform="matrix(1.0777777777777777,0,0,1.0777777777777777,-7.277781889173717,-6.816666666666663)" stroke="none" fill="white"><path d="M92 61c-3.71 0-7 1.84-8.99 4.67l-15.5-7.13c.32-1.13.49-2.31.49-3.54 0-5-2.82-9.33-6.95-11.51l5.67-16.58c.42.06.85.09 1.28.09 5.53 0 10-4.48 10-10S73.53 7 68 7c-5.52 0-10 4.48-10 10 0 3.67 1.98 6.89 4.94 8.62L57.27 42.2c-.74-.13-1.5-.2-2.27-.2-3.94 0-7.47 1.75-9.85 4.52L25.64 34.39c.23-.75.36-1.56.36-2.39 0-4.42-3.58-8-8-8s-8 3.58-8 8 3.58 8 8 8c2.14 0 4.08-.84 5.52-2.21l19.51 12.13C42.37 51.48 42 53.2 42 55c0 2.14.52 4.17 1.44 5.95L25.55 74.01A10.93 10.93 0 0 0 18 71c-6.07 0-11 4.92-11 11s4.93 11 11 11c6.08 0 11-4.92 11-11 0-1.71-.39-3.32-1.08-4.76l17.89-13.05a12.945 12.945 0 0 0 8.75 3.8l2.51 20.569A7.98 7.98 0 0 0 52 96c0 4.42 3.58 8 8 8s8-3.58 8-8a8 8 0 0 0-6.95-7.93L58.54 67.5c3.03-.84 5.61-2.77 7.3-5.33l15.5 7.13c-.22.86-.34 1.77-.34 2.7 0 6.08 4.93 11 11 11 6.08 0 11-4.92 11-11s-4.92-11-11-11zM62 17c0-3.31 2.69-6 6-6s6 2.69 6 6c0 3.29-2.66 5.97-5.94 6H68c-1.41 0-2.7-.48-3.72-1.3A5.955 5.955 0 0 1 62 17zM21.99 32.12a3.984 3.984 0 0 1-2.11 3.41A3.999 3.999 0 0 1 14 32c0-2.21 1.79-4 4-4s4 1.79 4 4c0 .04 0 .08-.01.12zM18 89c-3.86 0-7-3.14-7-7s3.14-7 7-7c1.59 0 3.05.53 4.23 1.43a6.955 6.955 0 0 1 2.37 3.24c.26.73.4 1.51.4 2.33 0 3.86-3.14 7-7 7zm42 3c.56 0 1.09.12 1.57.33C63 92.93 64 94.35 64 96c0 2.21-1.79 4-4 4a3.999 3.999 0 1 1 0-8zm3.81-35.16a8.917 8.917 0 0 1-1.67 3.63 8.933 8.933 0 0 1-4.09 2.99 8.815 8.815 0 0 1-3.98.49 8.955 8.955 0 0 1-4.97-2.16 9.098 9.098 0 0 1-2.37-3.24A8.943 8.943 0 0 1 46 55c0-1.03.17-2.01.5-2.93a8.948 8.948 0 0 1 2.11-3.4 8.95 8.95 0 0 1 7.34-2.62c1.38.14 2.66.6 3.78 1.3C62.29 48.94 64 51.77 64 55c0 .63-.07 1.25-.19 1.84zM92 79c-3.86 0-7-3.14-7-7 0-.33.02-.66.08-.98.18-1.38.78-2.64 1.67-3.64A6.965 6.965 0 0 1 92 65c3.86 0 7 3.14 7 7s-3.14 7-7 7z"></path></g><!----><g data-v-423bf9ae="" id="075d1a4c-2100-4ff6-a3df-774d7f6e880f" fill="white" transform="matrix(1.397790002452459,0,0,1.397790002452459,121.50977430963354,58.23878554476053)"><path d="M1.40 1.82L1.40 1.82Q1.40 1.64 1.52 1.52L1.52 1.52L1.52 1.52Q1.64 1.40 1.82 1.40L1.82 1.40L1.82 1.40Q2.00 1.40 2.12 1.52L2.12 1.52L2.12 1.52Q2.24 1.64 2.24 1.82L2.24 1.82L2.24 11.91L2.24 11.91Q2.24 12.10 2.12 12.21L2.12 12.21L2.12 12.21Q2.00 12.33 1.82 12.33L1.82 12.33L1.82 12.33Q1.64 12.33 1.52 12.21L1.52 12.21L1.52 12.21Q1.40 12.10 1.40 11.91L1.40 11.91L1.40 1.82ZM12.89 1.82L12.89 1.82Q12.89 1.64 13.01 1.52L13.01 1.52L13.01 1.52Q13.13 1.40 13.31 1.40L13.31 1.40L13.31 1.40Q13.48 1.40 13.61 1.52L13.61 1.52L13.61 1.52Q13.73 1.64 13.73 1.82L13.73 1.82L13.73 11.91L13.73 11.91Q13.73 12.10 13.61 12.21L13.61 12.21L13.61 12.21Q13.48 12.33 13.31 12.33L13.31 12.33L13.31 12.33Q13.12 12.33 13.01 12.21L13.01 12.21L5.88 2.94L5.88 11.91L5.88 11.91Q5.88 12.10 5.76 12.21L5.76 12.21L5.76 12.21Q5.64 12.33 5.46 12.33L5.46 12.33L5.46 12.33Q5.28 12.33 5.16 12.21L5.16 12.21L5.16 12.21Q5.04 12.10 5.04 11.91L5.04 11.91L5.04 1.82L5.04 1.82Q5.04 1.64 5.16 1.52L5.16 1.52L5.16 1.52Q5.28 1.40 5.46 1.40L5.46 1.40L5.46 1.40Q5.66 1.40 5.78 1.54L5.78 1.54L12.89 10.79L12.89 1.82ZM19.47 1.40L19.47 1.40Q21.06 1.40 22.30 2.10L22.30 2.10L22.30 2.10Q23.55 2.80 24.25 4.04L24.25 4.04L24.25 4.04Q24.95 5.28 24.95 6.86L24.95 6.86L24.95 6.86Q24.95 8.44 24.25 9.69L24.25 9.69L24.25 9.69Q23.55 10.93 22.30 11.63L22.30 11.63L22.30 11.63Q21.06 12.33 19.47 12.33L19.47 12.33L16.95 12.33L16.95 12.33Q16.77 12.33 16.65 12.21L16.65 12.21L16.65 12.21Q16.53 12.10 16.53 11.91L16.53 11.91L16.53 1.82L16.53 1.82Q16.53 1.62 16.65 1.51L16.65 1.51L16.65 1.51Q16.77 1.40 16.95 1.40L16.95 1.40L19.47 1.40ZM19.47 11.58L19.47 11.58Q20.82 11.58 21.87 10.97L21.87 10.97L21.87 10.97Q22.92 10.36 23.51 9.28L23.51 9.28L23.51 9.28Q24.11 8.20 24.11 6.86L24.11 6.86L24.11 6.86Q24.11 5.52 23.51 4.44L23.51 4.44L23.51 4.44Q22.92 3.37 21.87 2.76L21.87 2.76L21.87 2.76Q20.82 2.16 19.47 2.16L19.47 2.16L17.37 2.16L17.37 11.58L19.47 11.58ZM27.19 1.82L27.19 1.82Q27.19 1.62 27.31 1.51L27.31 1.51L27.31 1.51Q27.43 1.40 27.61 1.40L27.61 1.40L27.61 1.40Q27.80 1.40 27.92 1.51L27.92 1.51L27.92 1.51Q28.03 1.62 28.03 1.82L28.03 1.82L28.03 8.76L28.03 8.76Q28.03 9.62 28.46 10.29L28.46 10.29L28.46 10.29Q28.88 10.96 29.64 11.34L29.64 11.34L29.64 11.34Q30.41 11.72 31.39 11.72L31.39 11.72L31.39 11.72Q32.37 11.72 33.13 11.34L33.13 11.34L33.13 11.34Q33.89 10.96 34.33 10.29L34.33 10.29L34.33 10.29Q34.76 9.62 34.76 8.76L34.76 8.76L34.76 1.82L34.76 1.82Q34.76 1.62 34.88 1.51L34.88 1.51L34.88 1.51Q35 1.40 35.18 1.40L35.18 1.40L35.18 1.40Q35.38 1.40 35.49 1.51L35.49 1.51L35.49 1.51Q35.60 1.62 35.60 1.82L35.60 1.82L35.60 8.76L35.60 8.76Q35.60 9.87 35.06 10.73L35.06 10.73L35.06 10.73Q34.52 11.59 33.56 12.07L33.56 12.07L33.56 12.07Q32.61 12.56 31.39 12.56L31.39 12.56L31.39 12.56Q30.17 12.56 29.21 12.07L29.21 12.07L29.21 12.07Q28.25 11.59 27.72 10.73L27.72 10.73L27.72 10.73Q27.19 9.87 27.19 8.76L27.19 8.76L27.19 1.82ZM41.55 1.26L41.55 1.26Q42.57 1.26 43.43 1.75L43.43 1.75L43.43 1.75Q44.28 2.24 44.69 2.93L44.69 2.93L44.69 2.93Q44.74 3.02 44.74 3.15L44.74 3.15L44.74 3.15Q44.74 3.26 44.68 3.35L44.68 3.35L44.68 3.35Q44.62 3.44 44.51 3.50L44.51 3.50L44.51 3.50Q44.45 3.53 44.34 3.53L44.34 3.53L44.34 3.53Q44.09 3.53 43.95 3.32L43.95 3.32L43.95 3.32Q43.12 2.10 41.55 2.10L41.55 2.10L41.55 2.10Q40.39 2.10 39.74 2.63L39.74 2.63L39.74 2.63Q39.09 3.15 39.09 4.09L39.09 4.09L39.09 4.09Q39.09 4.87 39.73 5.40L39.73 5.40L39.73 5.40Q40.38 5.94 41.72 6.16L41.72 6.16L41.72 6.16Q43.48 6.45 44.30 7.24L44.30 7.24L44.30 7.24Q45.11 8.04 45.11 9.32L45.11 9.32L45.11 9.32Q45.11 10.29 44.68 11.00L44.68 11.00L44.68 11.00Q44.25 11.72 43.48 12.10L43.48 12.10L43.48 12.10Q42.70 12.47 41.68 12.47L41.68 12.47L41.68 12.47Q40.36 12.47 39.40 11.93L39.40 11.93L39.40 11.93Q38.43 11.40 37.95 10.46L37.95 10.46L37.95 10.46Q37.91 10.37 37.91 10.29L37.91 10.29L37.91 10.29Q37.91 10.12 38.03 10.01L38.03 10.01L38.03 10.01Q38.15 9.90 38.35 9.90L38.35 9.90L38.35 9.90Q38.63 9.90 38.75 10.16L38.75 10.16L38.75 10.16Q39.13 10.86 39.88 11.25L39.88 11.25L39.88 11.25Q40.63 11.63 41.68 11.63L41.68 11.63L41.68 11.63Q42.88 11.63 43.58 11.03L43.58 11.03L43.58 11.03Q44.27 10.43 44.27 9.32L44.27 9.32L44.27 9.32Q44.27 8.37 43.59 7.75L43.59 7.75L43.59 7.75Q42.91 7.13 41.58 6.94L41.58 6.94L41.58 6.94Q40.03 6.72 39.14 5.93L39.14 5.93L39.14 5.93Q38.25 5.14 38.25 4.00L38.25 4.00L38.25 4.00Q38.25 3.19 38.66 2.57L38.66 2.57L38.66 2.57Q39.07 1.95 39.82 1.60L39.82 1.60L39.82 1.60Q40.57 1.26 41.55 1.26L41.55 1.26ZM54.53 1.40L54.53 1.40Q54.70 1.40 54.80 1.50L54.80 1.50L54.80 1.50Q54.91 1.61 54.91 1.78L54.91 1.78L54.91 1.78Q54.91 1.95 54.80 2.05L54.80 2.05L54.80 2.05Q54.70 2.16 54.53 2.16L54.53 2.16L50.99 2.16L50.99 11.91L50.99 11.91Q50.99 12.10 50.87 12.21L50.87 12.21L50.87 12.21Q50.75 12.33 50.57 12.33L50.57 12.33L50.57 12.33Q50.39 12.33 50.27 12.21L50.27 12.21L50.27 12.21Q50.15 12.10 50.15 11.91L50.15 11.91L50.15 2.16L46.61 2.16L46.61 2.16Q46.44 2.16 46.33 2.05L46.33 2.05L46.33 2.05Q46.23 1.95 46.23 1.78L46.23 1.78L46.23 1.78Q46.23 1.61 46.33 1.50L46.33 1.50L46.33 1.50Q46.44 1.40 46.61 1.40L46.61 1.40L54.53 1.40ZM63.17 11.69L63.17 11.69Q63.28 11.89 63.28 12.01L63.28 12.01L63.28 12.01Q63.28 12.17 63.16 12.25L63.16 12.25L63.16 12.25Q63.04 12.33 62.82 12.33L62.82 12.33L62.82 12.33Q62.68 12.33 62.59 12.28L62.59 12.28L62.59 12.28Q62.51 12.22 62.44 12.11L62.44 12.11L59.86 7.99L59.61 7.99L57.36 7.99L57.36 11.91L57.36 11.91Q57.36 12.10 57.25 12.21L57.25 12.21L57.25 12.21Q57.13 12.33 56.94 12.33L56.94 12.33L56.94 12.33Q56.76 12.33 56.64 12.21L56.64 12.21L56.64 12.21Q56.52 12.10 56.52 11.91L56.52 11.91L56.52 1.82L56.52 1.82Q56.52 1.62 56.64 1.51L56.64 1.51L56.64 1.51Q56.76 1.40 56.94 1.40L56.94 1.40L59.61 1.40L59.61 1.40Q60.62 1.40 61.42 1.82L61.42 1.82L61.42 1.82Q62.22 2.24 62.66 3.00L62.66 3.00L62.66 3.00Q63.11 3.75 63.11 4.72L63.11 4.72L63.11 4.72Q63.11 5.87 62.48 6.70L62.48 6.70L62.48 6.70Q61.84 7.53 60.76 7.84L60.76 7.84L63.17 11.69ZM57.36 7.15L59.61 7.15L59.61 7.15Q60.38 7.15 60.98 6.85L60.98 6.85L60.98 6.85Q61.59 6.54 61.93 5.98L61.93 5.98L61.93 5.98Q62.27 5.42 62.27 4.72L62.27 4.72L62.27 4.72Q62.27 4.00 61.93 3.44L61.93 3.44L61.93 3.44Q61.59 2.87 60.98 2.55L60.98 2.55L60.98 2.55Q60.38 2.24 59.61 2.24L59.61 2.24L57.36 2.24L57.36 7.15ZM72.04 1.40L72.04 1.40Q72.21 1.40 72.32 1.51L72.32 1.51L72.32 1.51Q72.42 1.62 72.42 1.79L72.42 1.79L72.42 1.79Q72.42 1.95 72.35 2.06L72.35 2.06L68.49 8.25L68.49 11.91L68.49 11.91Q68.49 12.10 68.37 12.21L68.37 12.21L68.37 12.21Q68.25 12.33 68.07 12.33L68.07 12.33L68.07 12.33Q67.89 12.33 67.77 12.21L67.77 12.21L67.77 12.21Q67.65 12.10 67.65 11.91L67.65 11.91L67.65 8.25L63.78 2.06L63.78 2.06Q63.70 1.90 63.70 1.79L63.70 1.79L63.70 1.79Q63.70 1.62 63.81 1.51L63.81 1.51L63.81 1.51Q63.92 1.40 64.11 1.40L64.11 1.40L64.11 1.40Q64.29 1.40 64.44 1.57L64.44 1.57L68.07 7.48L71.64 1.67L71.64 1.67Q71.74 1.51 71.83 1.46L71.83 1.46L71.83 1.46Q71.92 1.40 72.04 1.40L72.04 1.40ZM81.14 1.26L81.14 1.26Q82.17 1.26 83.02 1.75L83.02 1.75L83.02 1.75Q83.87 2.24 84.28 2.93L84.28 2.93L84.28 2.93Q84.34 3.02 84.34 3.15L84.34 3.15L84.34 3.15Q84.34 3.26 84.27 3.35L84.27 3.35L84.27 3.35Q84.21 3.44 84.10 3.50L84.10 3.50L84.10 3.50Q84.04 3.53 83.93 3.53L83.93 3.53L83.93 3.53Q83.68 3.53 83.54 3.32L83.54 3.32L83.54 3.32Q82.71 2.10 81.14 2.10L81.14 2.10L81.14 2.10Q79.98 2.10 79.33 2.63L79.33 2.63L79.33 2.63Q78.68 3.15 78.68 4.09L78.68 4.09L78.68 4.09Q78.68 4.87 79.32 5.40L79.32 5.40L79.32 5.40Q79.97 5.94 81.31 6.16L81.31 6.16L81.31 6.16Q83.08 6.45 83.89 7.24L83.89 7.24L83.89 7.24Q84.70 8.04 84.70 9.32L84.70 9.32L84.70 9.32Q84.70 10.29 84.27 11.00L84.27 11.00L84.27 11.00Q83.85 11.72 83.07 12.10L83.07 12.10L83.07 12.10Q82.29 12.47 81.27 12.47L81.27 12.47L81.27 12.47Q79.95 12.47 78.99 11.93L78.99 11.93L78.99 11.93Q78.02 11.40 77.55 10.46L77.55 10.46L77.55 10.46Q77.50 10.37 77.50 10.29L77.50 10.29L77.50 10.29Q77.50 10.12 77.62 10.01L77.62 10.01L77.62 10.01Q77.74 9.90 77.94 9.90L77.94 9.90L77.94 9.90Q78.22 9.90 78.34 10.16L78.34 10.16L78.34 10.16Q78.72 10.86 79.47 11.25L79.47 11.25L79.47 11.25Q80.22 11.63 81.27 11.63L81.27 11.63L81.27 11.63Q82.47 11.63 83.17 11.03L83.17 11.03L83.17 11.03Q83.86 10.43 83.86 9.32L83.86 9.32L83.86 9.32Q83.86 8.37 83.18 7.75L83.18 7.75L83.18 7.75Q82.50 7.13 81.17 6.94L81.17 6.94L81.17 6.94Q79.62 6.72 78.73 5.93L78.73 5.93L78.73 5.93Q77.84 5.14 77.84 4.00L77.84 4.00L77.84 4.00Q77.84 3.19 78.25 2.57L78.25 2.57L78.25 2.57Q78.67 1.95 79.42 1.60L79.42 1.60L79.42 1.60Q80.16 1.26 81.14 1.26L81.14 1.26ZM92.06 1.26L92.06 1.26Q93.63 1.26 94.91 1.99L94.91 1.99L94.91 1.99Q96.19 2.73 96.93 4.01L96.93 4.01L96.93 4.01Q97.66 5.29 97.66 6.86L97.66 6.86L97.66 6.86Q97.66 8.44 96.93 9.72L96.93 9.72L96.93 9.72Q96.19 11.00 94.91 11.74L94.91 11.74L94.91 11.74Q93.63 12.47 92.06 12.47L92.06 12.47L92.06 12.47Q90.48 12.47 89.20 11.74L89.20 11.74L89.20 11.74Q87.92 11.00 87.19 9.72L87.19 9.72L87.19 9.72Q86.45 8.44 86.45 6.86L86.45 6.86L86.45 6.86Q86.45 5.29 87.19 4.01L87.19 4.01L87.19 4.01Q87.92 2.73 89.20 1.99L89.20 1.99L89.20 1.99Q90.48 1.26 92.06 1.26L92.06 1.26ZM92.06 2.10L92.06 2.10Q90.72 2.10 89.63 2.72L89.63 2.72L89.63 2.72Q88.54 3.35 87.91 4.44L87.91 4.44L87.91 4.44Q87.29 5.53 87.29 6.86L87.29 6.86L87.29 6.86Q87.29 8.20 87.91 9.30L87.91 9.30L87.91 9.30Q88.54 10.39 89.63 11.01L89.63 11.01L89.63 11.01Q90.72 11.63 92.06 11.63L92.06 11.63L92.06 11.63Q93.39 11.63 94.49 11.01L94.49 11.01L94.49 11.01Q95.58 10.39 96.20 9.30L96.20 9.30L96.20 9.30Q96.82 8.20 96.82 6.86L96.82 6.86L96.82 6.86Q96.82 5.53 96.20 4.44L96.20 4.44L96.20 4.44Q95.58 3.35 94.49 2.72L94.49 2.72L94.49 2.72Q93.39 2.10 92.06 2.10L92.06 2.10ZM106.50 11.58L106.50 11.58Q106.68 11.58 106.80 11.68L106.80 11.68L106.80 11.68Q106.92 11.79 106.92 11.96L106.92 11.96L106.92 11.96Q106.92 12.12 106.80 12.23L106.80 12.23L106.80 12.23Q106.68 12.33 106.50 12.33L106.50 12.33L100.32 12.33L100.32 12.33Q100.16 12.33 100.03 12.21L100.03 12.21L100.03 12.21Q99.90 12.10 99.90 11.91L99.90 11.91L99.90 1.82L99.90 1.82Q99.90 1.64 100.03 1.52L100.03 1.52L100.03 1.52Q100.16 1.40 100.32 1.40L100.32 1.40L100.32 1.40Q100.51 1.40 100.63 1.52L100.63 1.52L100.63 1.52Q100.74 1.64 100.74 1.82L100.74 1.82L100.74 11.58L106.50 11.58ZM108.67 1.82L108.67 1.82Q108.67 1.62 108.79 1.51L108.79 1.51L108.79 1.51Q108.91 1.40 109.09 1.40L109.09 1.40L109.09 1.40Q109.28 1.40 109.40 1.51L109.40 1.51L109.40 1.51Q109.51 1.62 109.51 1.82L109.51 1.82L109.51 8.76L109.51 8.76Q109.51 9.62 109.94 10.29L109.94 10.29L109.94 10.29Q110.36 10.96 111.13 11.34L111.13 11.34L111.13 11.34Q111.89 11.72 112.87 11.72L112.87 11.72L112.87 11.72Q113.85 11.72 114.61 11.34L114.61 11.34L114.61 11.34Q115.37 10.96 115.81 10.29L115.81 10.29L115.81 10.29Q116.24 9.62 116.24 8.76L116.24 8.76L116.24 1.82L116.24 1.82Q116.24 1.62 116.36 1.51L116.36 1.51L116.36 1.51Q116.48 1.40 116.66 1.40L116.66 1.40L116.66 1.40Q116.86 1.40 116.97 1.51L116.97 1.51L116.97 1.51Q117.08 1.62 117.08 1.82L117.08 1.82L117.08 8.76L117.08 8.76Q117.08 9.87 116.54 10.73L116.54 10.73L116.54 10.73Q116.00 11.59 115.05 12.07L115.05 12.07L115.05 12.07Q114.09 12.56 112.87 12.56L112.87 12.56L112.87 12.56Q111.65 12.56 110.69 12.07L110.69 12.07L110.69 12.07Q109.73 11.59 109.20 10.73L109.20 10.73L109.20 10.73Q108.67 9.87 108.67 8.76L108.67 8.76L108.67 1.82ZM126.99 1.40L126.99 1.40Q127.16 1.40 127.27 1.50L127.27 1.50L127.27 1.50Q127.37 1.61 127.37 1.78L127.37 1.78L127.37 1.78Q127.37 1.95 127.27 2.05L127.27 2.05L127.27 2.05Q127.16 2.16 126.99 2.16L126.99 2.16L123.45 2.16L123.45 11.91L123.45 11.91Q123.45 12.10 123.33 12.21L123.33 12.21L123.33 12.21Q123.21 12.33 123.03 12.33L123.03 12.33L123.03 12.33Q122.85 12.33 122.73 12.21L122.73 12.21L122.73 12.21Q122.61 12.10 122.61 11.91L122.61 11.91L122.61 2.16L119.07 2.16L119.07 2.16Q118.90 2.16 118.80 2.05L118.80 2.05L118.80 2.05Q118.69 1.95 118.69 1.78L118.69 1.78L118.69 1.78Q118.69 1.61 118.80 1.50L118.80 1.50L118.80 1.50Q118.90 1.40 119.07 1.40L119.07 1.40L126.99 1.40ZM128.98 1.82L128.98 1.82Q128.98 1.64 129.10 1.52L129.10 1.52L129.10 1.52Q129.22 1.40 129.40 1.40L129.40 1.40L129.40 1.40Q129.58 1.40 129.70 1.52L129.70 1.52L129.70 1.52Q129.82 1.64 129.82 1.82L129.82 1.82L129.82 11.91L129.82 11.91Q129.82 12.10 129.70 12.21L129.70 12.21L129.70 12.21Q129.58 12.33 129.40 12.33L129.40 12.33L129.40 12.33Q129.22 12.33 129.10 12.21L129.10 12.21L129.10 12.21Q128.98 12.10 128.98 11.91L128.98 11.91L128.98 1.82ZM137.68 1.26L137.68 1.26Q139.24 1.26 140.53 1.99L140.53 1.99L140.53 1.99Q141.81 2.73 142.54 4.01L142.54 4.01L142.54 4.01Q143.28 5.29 143.28 6.86L143.28 6.86L143.28 6.86Q143.28 8.44 142.54 9.72L142.54 9.72L142.54 9.72Q141.81 11.00 140.53 11.74L140.53 11.74L140.53 11.74Q139.24 12.47 137.68 12.47L137.68 12.47L137.68 12.47Q136.09 12.47 134.81 11.74L134.81 11.74L134.81 11.74Q133.53 11.00 132.80 9.72L132.80 9.72L132.80 9.72Q132.06 8.44 132.06 6.86L132.06 6.86L132.06 6.86Q132.06 5.29 132.80 4.01L132.80 4.01L132.80 4.01Q133.53 2.73 134.81 1.99L134.81 1.99L134.81 1.99Q136.09 1.26 137.68 1.26L137.68 1.26ZM137.68 2.10L137.68 2.10Q136.33 2.10 135.24 2.72L135.24 2.72L135.24 2.72Q134.15 3.35 133.53 4.44L133.53 4.44L133.53 4.44Q132.90 5.53 132.90 6.86L132.90 6.86L132.90 6.86Q132.90 8.20 133.53 9.30L133.53 9.30L133.53 9.30Q134.15 10.39 135.24 11.01L135.24 11.01L135.24 11.01Q136.33 11.63 137.68 11.63L137.68 11.63L137.68 11.63Q139.01 11.63 140.10 11.01L140.10 11.01L140.10 11.01Q141.19 10.39 141.81 9.30L141.81 9.30L141.81 9.30Q142.44 8.20 142.44 6.86L142.44 6.86L142.44 6.86Q142.44 5.53 141.81 4.44L141.81 4.44L141.81 4.44Q141.19 3.35 140.10 2.72L140.10 2.72L140.10 2.72Q139.01 2.10 137.68 2.10L137.68 2.10ZM153.37 1.82L153.37 1.82Q153.37 1.64 153.49 1.52L153.49 1.52L153.49 1.52Q153.61 1.40 153.79 1.40L153.79 1.40L153.79 1.40Q153.96 1.40 154.08 1.52L154.08 1.52L154.08 1.52Q154.21 1.64 154.21 1.82L154.21 1.82L154.21 11.91L154.21 11.91Q154.21 12.10 154.08 12.21L154.08 12.21L154.08 12.21Q153.96 12.33 153.79 12.33L153.79 12.33L153.79 12.33Q153.59 12.33 153.48 12.21L153.48 12.21L146.36 2.94L146.36 11.91L146.36 11.91Q146.36 12.10 146.24 12.21L146.24 12.21L146.24 12.21Q146.12 12.33 145.94 12.33L145.94 12.33L145.94 12.33Q145.75 12.33 145.64 12.21L145.64 12.21L145.64 12.21Q145.52 12.10 145.52 11.91L145.52 11.91L145.52 1.82L145.52 1.82Q145.52 1.64 145.64 1.52L145.64 1.52L145.64 1.52Q145.75 1.40 145.94 1.40L145.94 1.40L145.94 1.40Q146.13 1.40 146.26 1.54L146.26 1.54L153.37 10.79L153.37 1.82ZM160.16 1.26L160.16 1.26Q161.18 1.26 162.04 1.75L162.04 1.75L162.04 1.75Q162.89 2.24 163.30 2.93L163.30 2.93L163.30 2.93Q163.35 3.02 163.35 3.15L163.35 3.15L163.35 3.15Q163.35 3.26 163.29 3.35L163.29 3.35L163.29 3.35Q163.23 3.44 163.11 3.50L163.11 3.50L163.11 3.50Q163.06 3.53 162.95 3.53L162.95 3.53L162.95 3.53Q162.69 3.53 162.55 3.32L162.55 3.32L162.55 3.32Q161.73 2.10 160.16 2.10L160.16 2.10L160.16 2.10Q159.00 2.10 158.35 2.63L158.35 2.63L158.35 2.63Q157.70 3.15 157.70 4.09L157.70 4.09L157.70 4.09Q157.70 4.87 158.34 5.40L158.34 5.40L158.34 5.40Q158.98 5.94 160.33 6.16L160.33 6.16L160.33 6.16Q162.09 6.45 162.90 7.24L162.90 7.24L162.90 7.24Q163.72 8.04 163.72 9.32L163.72 9.32L163.72 9.32Q163.72 10.29 163.29 11.00L163.29 11.00L163.29 11.00Q162.86 11.72 162.09 12.10L162.09 12.10L162.09 12.10Q161.31 12.47 160.29 12.47L160.29 12.47L160.29 12.47Q158.97 12.47 158.00 11.93L158.00 11.93L158.00 11.93Q157.04 11.40 156.56 10.46L156.56 10.46L156.56 10.46Q156.52 10.37 156.52 10.29L156.52 10.29L156.52 10.29Q156.52 10.12 156.64 10.01L156.64 10.01L156.64 10.01Q156.76 9.90 156.95 9.90L156.95 9.90L156.95 9.90Q157.23 9.90 157.36 10.16L157.36 10.16L157.36 10.16Q157.74 10.86 158.49 11.25L158.49 11.25L158.49 11.25Q159.24 11.63 160.29 11.63L160.29 11.63L160.29 11.63Q161.49 11.63 162.18 11.03L162.18 11.03L162.18 11.03Q162.88 10.43 162.88 9.32L162.88 9.32L162.88 9.32Q162.88 8.37 162.20 7.75L162.20 7.75L162.20 7.75Q161.52 7.13 160.19 6.94L160.19 6.94L160.19 6.94Q158.63 6.72 157.75 5.93L157.75 5.93L157.75 5.93Q156.86 5.14 156.86 4.00L156.86 4.00L156.86 4.00Q156.86 3.19 157.27 2.57L157.27 2.57L157.27 2.57Q157.68 1.95 158.43 1.60L158.43 1.60L158.43 1.60Q159.18 1.26 160.16 1.26L160.16 1.26Z"></path></g></svg>