<?xml version="1.0" encoding="utf-8"?>
<!-- Generator: Adobe Illustrator 22.0.1, SVG Export Plug-In . SVG Version: 6.00 Build 0)  -->
<svg version="1.1" id="Capa_1" xmlns="http://www.w3.org/2000/svg" xmlns:xlink="http://www.w3.org/1999/xlink" x="0px" y="0px"
	 viewBox="0 0 316.2 137.1" style="enable-background:new 0 0 316.2 137.1;" xml:space="preserve">
<style type="text/css">
	.st0{fill:#4D4D4D;}
	.st1{fill:#FD4239;}
	.st2{fill:#DD463C;}
	.st3{fill:#00A4E3;}
	.st4{fill:#5A6E7A;}
	.st5{fill:#FFFFFF;}
	.st6{fill:#5E666F;}
</style>
<g>
	<path class="st5" d="M164,43.9c-2.2-1.3-4.7-1.9-7.3-1.9c-2,0-3.6,0.2-5,0.7c-1.3,0.5-2.4,1-3.2,1.8c-0.8,0.7-1.5,1.5-1.9,2.2h-1.2
		V29.4h-8.3v21h-4.6c-0.3-2.2-1-4.1-2-5.8c-1.5-2.5-3.5-4.4-6.1-5.7c-2.6-1.3-5.5-2-8.8-2c-3.3,0-6.2,0.7-8.8,2
		c-2.6,1.3-4.6,3.2-6.1,5.7c-1,1.7-1.7,3.6-2,5.8h-5.9c0.3-0.3,0.7-0.7,1-1.1c1.3-1.7,2-4,2-6.7v-0.8c0-2.5-0.6-4.7-1.8-6.5
		c-1.2-1.8-2.9-3.3-5-4.3c-2.2-1-4.7-1.5-7.6-1.5H61.1v46.2h8.7V58.2H82c1.3,0,2.2,0.3,2.7,1c0.6,0.7,0.8,1.5,0.8,2.6v13.9h8.7V60.5
		c0-1-0.1-1.8-0.4-2.6h4.7c0.3,2.2,1,4.1,2,5.8c1.5,2.5,3.5,4.4,6.1,5.7c2.6,1.3,5.5,2,8.8,2c3.3,0,6.2-0.7,8.8-2
		c2.6-1.3,4.6-3.2,6.1-5.7c1-1.7,1.7-3.6,2-5.8h4.6v17.7h8.2v-4h1.2c0.7,1.2,1.9,2.4,3.5,3.4c1.6,1,3.9,1.5,6.8,1.5
		c2.6,0,5.1-0.6,7.3-1.9c2.2-1.3,4.1-3.2,5.4-5.7c1.4-2.5,2-5.5,2-9.1v-1.1c0-3.6-0.7-6.6-2-9.1C168,47.1,166.2,45.2,164,43.9z
		 M86.9,44.1c0,1.9-0.6,3.3-1.7,4.5c-1.2,1.1-2.8,1.7-4.9,1.7H69.8V37.3h10.4c2.1,0,3.7,0.6,4.9,1.7c1.1,1.1,1.7,2.6,1.7,4.5V44.1z
		 M124.3,54.5c0,3.1-0.8,5.4-2.5,7.1c-1.7,1.7-3.8,2.5-6.3,2.5c-2.6,0-4.7-0.8-6.3-2.5c-1.7-1.7-2.5-4-2.5-7.1v-0.7
		c0-3.1,0.8-5.4,2.5-7.1c1.7-1.7,3.8-2.5,6.3-2.5c2.6,0,4.7,0.8,6.4,2.5c1.7,1.7,2.5,4,2.5,7.1V54.5z M163.1,59.6
		c0,3.2-0.9,5.6-2.6,7.2c-1.7,1.7-3.9,2.5-6.4,2.5s-4.7-0.8-6.4-2.5c-1.7-1.7-2.6-4.1-2.6-7.2v-0.7c0-3.2,0.9-5.6,2.6-7.2
		c1.7-1.7,3.9-2.5,6.4-2.5c2.6,0,4.7,0.8,6.4,2.5c1.7,1.7,2.5,4.1,2.5,7.2V59.6z"/>
	<path class="st5" d="M178.3,39c1.5,0,2.8-0.5,3.8-1.5c1-1,1.5-2.2,1.5-3.8c0-1.6-0.5-2.9-1.5-3.8c-1-1-2.3-1.5-3.8-1.5
		c-1.5,0-2.8,0.5-3.8,1.5c-1,1-1.6,2.2-1.6,3.8c0,1.6,0.5,2.9,1.6,3.8C175.5,38.5,176.8,39,178.3,39z"/>
	<path class="st5" d="M198.7,32.7h-8.3v10.2h-7.9h-0.3h-8v32.8h8.3V49.7h7.9v18.5c0,2.2,0.7,4,2,5.4c1.3,1.3,3.1,2,5.3,2h9.2v-6.9
		h-6.3c-1.2,0-1.9-0.7-1.9-2v-17h9v-6.9h-9V32.7z"/>
	<path class="st5" d="M233.2,44.1c-2.4-1.4-5.2-2.1-8.4-2.1c-3.3,0-6.1,0.7-8.6,2.1c-2.5,1.4-4.4,3.3-5.7,5.9c-1.4,2.5-2,5.5-2,9
		v0.8c0,3.4,0.7,6.4,2.1,9c1.4,2.5,3.3,4.5,5.8,5.9c2.5,1.4,5.4,2.1,8.6,2.1c3,0,5.5-0.5,7.4-1.4c1.9-0.9,3.5-2.1,4.7-3.4
		c1.2-1.3,2.1-2.6,2.7-3.7l-6.8-3.6c-0.6,1.2-1.4,2.4-2.5,3.4c-1.1,1-2.8,1.5-5.2,1.5c-2.3,0-4.2-0.7-5.8-2.1
		c-1.6-1.4-2.4-3.2-2.5-5.5h23.8v-2.8c0-3.3-0.7-6.3-2-8.8C237.4,47.5,235.6,45.5,233.2,44.1z M216.9,55.5c0.3-1.9,1.1-3.4,2.4-4.6
		c1.3-1.1,3.1-1.7,5.4-1.7c2.2,0,3.9,0.6,5.3,1.7c1.3,1.1,2.1,2.7,2.3,4.6H216.9z"/>
	<path class="st5" d="M268.6,62.1c-0.4,2.1-1.2,3.8-2.5,5.1c-1.3,1.3-3.2,1.9-5.7,1.9c-1.7,0-3.2-0.4-4.5-1.1
		c-1.3-0.7-2.4-1.8-3.2-3.2c-0.8-1.4-1.2-3.2-1.2-5.3v-0.7c0-2.1,0.4-3.8,1.2-5.3c0.8-1.4,1.8-2.5,3.2-3.2c1.3-0.7,2.9-1.1,4.5-1.1
		s3.1,0.3,4.2,0.9c1.1,0.6,2,1.5,2.6,2.5c0.6,1.1,1,2.2,1.2,3.6l8.1-1.7c-0.4-2.4-1.4-4.6-2.7-6.5c-1.4-1.9-3.2-3.4-5.4-4.5
		c-2.2-1.1-4.9-1.7-8.1-1.7c-3.2,0-6,0.7-8.6,2c-2.6,1.3-4.6,3.2-6.1,5.7c-1.5,2.5-2.2,5.5-2.2,9.1v0.9c0,3.6,0.7,6.6,2.2,9.1
		c1.5,2.5,3.5,4.4,6.1,5.7c2.6,1.3,5.4,2,8.6,2c3.1,0,5.8-0.6,8.1-1.7c2.2-1.1,4.1-2.6,5.4-4.5c1.4-1.9,2.4-4,2.9-6.4L268.6,62.1z"
		/>
</g>
<g>
	<path class="st5" d="M90.6,92.1v10.3h-1.7V92.1H90.6z"/>
	<path class="st5" d="M101.6,102.4h-1.7l-5-7.6v7.6h-1.7V92.2h1.7l5,7.6v-7.6h1.7V102.4z"/>
	<path class="st5" d="M112.5,100c-0.4,0.8-1,1.4-1.8,1.8c-0.8,0.4-1.8,0.6-2.9,0.6h-3.4V92.1h3.4c1.1,0,2.1,0.2,2.9,0.6
		c0.8,0.4,1.4,1,1.8,1.8c0.4,0.8,0.6,1.7,0.6,2.7C113.1,98.3,112.9,99.2,112.5,100z M110.4,99.9c0.7-0.6,1-1.5,1-2.7
		c0-1.2-0.3-2-1-2.7c-0.7-0.6-1.6-1-2.8-1H106v7.3h1.6C108.8,100.9,109.8,100.6,110.4,99.9z"/>
	<path class="st5" d="M117.1,92.1v6.1c0,0.9,0.2,1.6,0.6,2c0.4,0.4,1,0.7,1.7,0.7c0.7,0,1.3-0.2,1.7-0.7c0.4-0.4,0.6-1.1,0.6-2v-6.1
		h1.7v6.1c0,1.4-0.4,2.5-1.1,3.2c-0.7,0.7-1.7,1.1-2.9,1.1c-1.2,0-2.1-0.4-2.8-1.1c-0.7-0.7-1.1-1.8-1.1-3.2v-6.1H117.1z"/>
	<path class="st5" d="M132.4,101.1c-0.2,0.4-0.6,0.8-1.1,1c-0.5,0.3-1.1,0.4-1.8,0.4c-0.7,0-1.3-0.1-1.9-0.4c-0.6-0.2-1-0.6-1.3-1
		c-0.3-0.4-0.5-1-0.6-1.5h1.8c0,0.4,0.2,0.8,0.6,1.1c0.3,0.3,0.8,0.5,1.3,0.5c0.5,0,0.9-0.1,1.2-0.4c0.3-0.3,0.4-0.6,0.4-1
		c0-0.4-0.1-0.7-0.3-0.9c-0.2-0.2-0.5-0.4-0.8-0.6c-0.3-0.1-0.7-0.3-1.2-0.5c-0.6-0.2-1.2-0.4-1.6-0.6c-0.4-0.2-0.7-0.5-1-0.9
		c-0.3-0.4-0.4-0.9-0.4-1.5c0-0.6,0.1-1,0.4-1.5c0.3-0.4,0.7-0.7,1.2-1c0.5-0.2,1.1-0.3,1.7-0.3c1,0,1.9,0.3,2.5,0.8
		c0.6,0.5,1,1.2,1.1,2h-1.8c-0.1-0.4-0.2-0.7-0.5-1c-0.3-0.3-0.7-0.4-1.2-0.4c-0.5,0-0.8,0.1-1.1,0.4c-0.3,0.2-0.4,0.6-0.4,1
		c0,0.3,0.1,0.6,0.3,0.9c0.2,0.2,0.4,0.4,0.7,0.5c0.3,0.1,0.7,0.3,1.2,0.5c0.6,0.2,1.2,0.4,1.6,0.6c0.4,0.2,0.8,0.5,1,0.9
		c0.3,0.4,0.4,0.9,0.4,1.6C132.7,100.2,132.6,100.6,132.4,101.1z"/>
	<path class="st5" d="M141.7,92.1v1.3h-2.9v8.9h-1.7v-8.9h-2.8v-1.3H141.7z"/>
	<path class="st5" d="M149.1,102.4l-2.6-4.1h-1.2v4.1h-1.7V92.1h3.6c1.2,0,2.1,0.3,2.7,0.9c0.6,0.6,0.9,1.3,0.9,2.3
		c0,0.8-0.2,1.5-0.7,2c-0.5,0.5-1.1,0.8-2,1l2.7,4.2H149.1z M145.3,97.1h1.8c1.3,0,2-0.6,2-1.8c0-0.6-0.2-1-0.5-1.3
		c-0.3-0.3-0.8-0.5-1.5-0.5h-1.8V97.1z"/>
	<path class="st5" d="M160.8,92.1l-3.4,6.5v3.7h-1.7v-3.7l-3.4-6.5h1.9l2.4,4.8l2.4-4.8H160.8z"/>
	<path class="st5" d="M173.3,101.1c-0.2,0.4-0.6,0.8-1.1,1c-0.5,0.3-1.1,0.4-1.8,0.4c-0.7,0-1.3-0.1-1.9-0.4c-0.6-0.2-1-0.6-1.3-1
		c-0.3-0.4-0.5-1-0.6-1.5h1.8c0,0.4,0.2,0.8,0.6,1.1c0.3,0.3,0.8,0.5,1.3,0.5c0.5,0,0.9-0.1,1.2-0.4c0.3-0.3,0.4-0.6,0.4-1
		c0-0.4-0.1-0.7-0.3-0.9c-0.2-0.2-0.5-0.4-0.8-0.6c-0.3-0.1-0.7-0.3-1.2-0.5c-0.6-0.2-1.2-0.4-1.6-0.6c-0.4-0.2-0.7-0.5-1-0.9
		c-0.3-0.4-0.4-0.9-0.4-1.5c0-0.6,0.1-1,0.4-1.5c0.3-0.4,0.7-0.7,1.2-1c0.5-0.2,1.1-0.3,1.7-0.3c1,0,1.9,0.3,2.5,0.8
		c0.6,0.5,1,1.2,1.1,2h-1.8c-0.1-0.4-0.2-0.7-0.5-1c-0.3-0.3-0.7-0.4-1.2-0.4c-0.5,0-0.8,0.1-1.1,0.4c-0.3,0.2-0.4,0.6-0.4,1
		c0,0.3,0.1,0.6,0.3,0.9c0.2,0.2,0.4,0.4,0.7,0.5c0.3,0.1,0.7,0.3,1.2,0.5c0.6,0.2,1.2,0.4,1.6,0.6c0.4,0.2,0.8,0.5,1,0.9
		c0.3,0.4,0.4,0.9,0.4,1.6C173.7,100.2,173.5,100.6,173.3,101.1z"/>
	<path class="st5" d="M183.4,92.7c0.8,0.4,1.4,1.1,1.8,1.9c0.4,0.8,0.7,1.7,0.7,2.7s-0.2,1.9-0.7,2.7c-0.4,0.8-1,1.4-1.8,1.9
		c-0.8,0.5-1.6,0.7-2.6,0.7c-1,0-1.8-0.2-2.6-0.7c-0.8-0.5-1.4-1.1-1.8-1.9c-0.4-0.8-0.7-1.7-0.7-2.7s0.2-1.9,0.7-2.7
		c0.4-0.8,1.1-1.4,1.8-1.9c0.8-0.4,1.6-0.7,2.6-0.7C181.7,92,182.6,92.2,183.4,92.7z M179,94c-0.5,0.3-0.9,0.7-1.2,1.3
		c-0.3,0.6-0.4,1.2-0.4,2s0.1,1.4,0.4,2c0.3,0.6,0.7,1,1.2,1.3c0.5,0.3,1.1,0.5,1.8,0.5c0.6,0,1.2-0.1,1.7-0.5
		c0.5-0.3,0.9-0.7,1.2-1.3c0.3-0.6,0.4-1.2,0.4-2s-0.1-1.4-0.4-2c-0.3-0.6-0.7-1-1.2-1.3c-0.5-0.3-1.1-0.5-1.7-0.5
		C180.1,93.5,179.5,93.7,179,94z"/>
	<path class="st5" d="M189.9,101.1h3.5v1.3h-5.2V92.1h1.7V101.1z"/>
	<path class="st5" d="M197,92.1v6.1c0,0.9,0.2,1.6,0.6,2c0.4,0.4,1,0.7,1.7,0.7c0.7,0,1.3-0.2,1.7-0.7c0.4-0.4,0.6-1.1,0.6-2v-6.1
		h1.7v6.1c0,1.4-0.4,2.5-1.1,3.2c-0.7,0.7-1.7,1.1-2.9,1.1c-1.2,0-2.1-0.4-2.8-1.1c-0.7-0.7-1.1-1.8-1.1-3.2v-6.1H197z"/>
	<path class="st5" d="M212.5,92.1v1.3h-2.9v8.9H208v-8.9h-2.8v-1.3H212.5z"/>
	<path class="st5" d="M216.1,92.1v10.3h-1.7V92.1H216.1z"/>
	<path class="st5" d="M226.2,92.7c0.8,0.4,1.4,1.1,1.8,1.9c0.4,0.8,0.7,1.7,0.7,2.7s-0.2,1.9-0.7,2.7c-0.4,0.8-1,1.4-1.8,1.9
		c-0.8,0.5-1.6,0.7-2.6,0.7c-1,0-1.8-0.2-2.6-0.7c-0.8-0.5-1.4-1.1-1.8-1.9c-0.4-0.8-0.7-1.7-0.7-2.7s0.2-1.9,0.7-2.7
		c0.4-0.8,1.1-1.4,1.8-1.9c0.8-0.4,1.6-0.7,2.6-0.7C224.6,92,225.4,92.2,226.2,92.7z M221.9,94c-0.5,0.3-0.9,0.7-1.2,1.3
		c-0.3,0.6-0.4,1.2-0.4,2s0.1,1.4,0.4,2c0.3,0.6,0.7,1,1.2,1.3c0.5,0.3,1.1,0.5,1.8,0.5c0.6,0,1.2-0.1,1.7-0.5
		c0.5-0.3,0.9-0.7,1.2-1.3c0.3-0.6,0.4-1.2,0.4-2s-0.1-1.4-0.4-2c-0.3-0.6-0.7-1-1.2-1.3c-0.5-0.3-1.1-0.5-1.7-0.5
		C223,93.5,222.4,93.7,221.9,94z"/>
	<path class="st5" d="M239.4,102.4h-1.7l-5-7.6v7.6h-1.7V92.2h1.7l5,7.6v-7.6h1.7V102.4z"/>
	<path class="st5" d="M248.5,101.1c-0.2,0.4-0.6,0.8-1.1,1c-0.5,0.3-1.1,0.4-1.8,0.4c-0.7,0-1.3-0.1-1.9-0.4c-0.6-0.2-1-0.6-1.3-1
		c-0.3-0.4-0.5-1-0.6-1.5h1.8c0,0.4,0.2,0.8,0.6,1.1c0.3,0.3,0.8,0.5,1.3,0.5c0.5,0,0.9-0.1,1.2-0.4c0.3-0.3,0.4-0.6,0.4-1
		c0-0.4-0.1-0.7-0.3-0.9c-0.2-0.2-0.5-0.4-0.8-0.6c-0.3-0.1-0.7-0.3-1.2-0.5c-0.6-0.2-1.2-0.4-1.6-0.6c-0.4-0.2-0.7-0.5-1-0.9
		c-0.3-0.4-0.4-0.9-0.4-1.5c0-0.6,0.1-1,0.4-1.5c0.3-0.4,0.7-0.7,1.2-1c0.5-0.2,1.1-0.3,1.7-0.3c1,0,1.9,0.3,2.5,0.8
		c0.6,0.5,1,1.2,1.1,2h-1.8c-0.1-0.4-0.2-0.7-0.5-1c-0.3-0.3-0.7-0.4-1.2-0.4c-0.5,0-0.8,0.1-1.1,0.4c-0.3,0.2-0.4,0.6-0.4,1
		c0,0.3,0.1,0.6,0.3,0.9c0.2,0.2,0.4,0.4,0.7,0.5c0.3,0.1,0.7,0.3,1.2,0.5c0.6,0.2,1.2,0.4,1.6,0.6c0.4,0.2,0.8,0.5,1,0.9
		c0.3,0.4,0.4,0.9,0.4,1.6C248.8,100.2,248.7,100.6,248.5,101.1z"/>
</g>
</svg>
